<svg width="40" height="40" viewBox="0 0 40 40" fill="none" xmlns="http://www.w3.org/2000/svg">
<path d="M13.1234 24.3717C10.2701 27.225 7.22798 27.225 4.37464 24.3717C1.5213 21.5183 1.5213 18.4763 4.37464 15.6229C7.22798 12.7696 10.2701 12.7696 13.1234 15.6229C15.9767 18.4763 15.9767 21.5183 13.1234 24.3717Z" fill="#00AD45"/>
<path d="M24.3744 35.6207C21.521 38.474 18.479 38.474 15.6256 35.6207C12.7723 32.7674 12.7723 29.7253 15.6256 26.8719C18.479 24.0186 21.521 24.0186 24.3744 26.8719C27.2277 29.7253 27.2277 32.7674 24.3744 35.6207Z" fill="#00AD45"/>
<path d="M24.3744 13.1231C21.521 15.9765 18.479 15.9765 15.6256 13.1231C12.7723 10.2698 12.7723 7.22773 15.6256 4.37438C18.479 1.52104 21.521 1.52104 24.3744 4.37438C27.2277 7.22773 27.2277 10.2698 24.3744 13.1231Z" fill="#00AD45"/>
<path d="M35.6254 24.3717C32.772 27.225 29.7299 27.225 26.8766 24.3717C24.0233 21.5183 24.0233 18.4763 26.8766 15.6229C29.7299 12.7696 32.772 12.7696 35.6254 15.6229C38.4787 18.4763 38.4787 21.5183 35.6254 24.3717Z" fill="#F13225"/>
</svg>
