<svg width="40" height="40" viewBox="0 0 40 40" fill="none" xmlns="http://www.w3.org/2000/svg">
<path d="M31.7911 6.15757C31.2383 8.25288 29.8266 9.07511 27.7313 8.52225C25.636 7.96938 24.8137 6.55771 25.3666 4.4624C25.9195 2.3671 27.3311 1.54486 29.4265 2.09773C31.5218 2.65059 32.344 4.06226 31.7911 6.15757Z" fill="#00AD45"/>
<path d="M29.6311 11.9702C29.6081 11.937 29.5966 11.9204 29.5917 11.9106C29.5867 11.9009 29.582 11.8877 29.5726 11.8614C29.2154 10.8564 28.4946 10.0317 27.429 9.70082C26.449 9.39654 25.9591 9.2444 25.389 9.3159C24.8174 9.38758 24.156 9.72806 23.7655 10.1516C23.3761 10.5741 23.1916 11.1328 22.8226 12.2502C22.5221 13.1605 22.1996 14.1562 21.9052 15.1042C21.2794 17.1197 20.5676 19.6062 20.1934 20.9289L18.1725 26.3607C17.9487 26.9623 17.5147 27.4626 16.9507 27.7691L11.5496 30.7044C10.5017 31.2739 10.1139 32.585 10.6834 33.6329C11.2529 34.6808 12.564 35.0686 13.6119 34.4991L19.8533 31.107C20.6418 30.6786 21.3123 30.0606 21.7693 29.2883C22.3065 28.3808 22.8982 27.3216 23.4448 26.2914C23.56 26.0742 23.6176 25.9657 23.7106 25.96C23.8037 25.9544 23.8737 26.0549 24.0138 26.256L25.7211 28.7062C26.0965 29.2449 26.2592 29.9035 26.1778 30.555L25.4603 36.301C25.3125 37.4844 26.1521 38.5636 27.3355 38.7114C28.5189 38.8592 29.5981 38.0196 29.7459 36.8362L30.5665 30.265C30.7149 29.0765 30.4567 27.8723 29.9259 26.7986C29.4457 25.8274 28.9067 24.661 28.379 23.5191C28.2209 23.1771 28.0635 22.8365 27.9094 22.5048C27.8857 22.4539 27.8739 22.4284 27.871 22.4011C27.8681 22.3737 27.8742 22.3464 27.8865 22.2919C28.0516 21.5606 28.2626 20.6516 28.5022 19.6779C28.5844 19.3436 28.6256 19.1765 28.7253 19.1536C28.825 19.1307 28.9426 19.2726 29.1777 19.5562C29.4856 19.9277 29.8543 20.2471 30.2753 20.4936L33.6123 22.4476C34.3908 22.9034 35.3901 22.6651 35.8792 21.9071C36.4018 21.097 36.1393 20.0144 35.3037 19.5336L32.5346 17.9403C31.9986 17.6319 31.587 17.1463 31.3705 16.567L29.7068 12.1154C29.6873 12.0632 29.6617 12.0146 29.6311 11.9702Z" fill="#00AD45"/>
<path d="M18.389 7.42414C19.3246 7.77619 19.7924 7.95222 20.0028 8.36558C20.2133 8.77894 20.0804 9.26104 19.8145 10.2253C19.4509 11.544 18.9482 13.3075 18.436 14.9148C17.8979 16.6035 17.205 18.5724 16.6889 20.0066C16.3474 20.9553 16.1767 21.4297 15.7654 21.646C15.354 21.8623 14.8678 21.7344 13.8954 21.4787C12.6732 21.1572 11.1375 20.7371 9.95601 20.3606C8.7745 19.9841 7.27898 19.4382 6.09608 18.9932C5.15501 18.6392 4.68447 18.4622 4.47411 18.0477C4.26374 17.6333 4.39898 17.1476 4.66944 16.1762C5.07827 14.7079 5.65238 12.7011 6.1905 11.0125C6.70272 9.40515 7.31305 7.67596 7.77953 6.38998C8.12059 5.44974 8.29112 4.97962 8.70195 4.76425C9.11277 4.54887 9.59615 4.67597 10.5629 4.93015C11.7874 5.25208 13.33 5.67383 14.5159 6.05175C15.7018 6.42967 17.2041 6.97825 18.389 7.42414Z" fill="#F13225"/>
</svg>
