<svg width="40" height="40" viewBox="0 0 40 40" fill="none" xmlns="http://www.w3.org/2000/svg">
<path fill-rule="evenodd" clip-rule="evenodd" d="M10.7086 13.5951C11.1329 11.478 13.8068 10.7616 15.2327 12.3828L19.0885 16.7668C19.1114 16.7928 19.1453 16.8056 19.1789 16.8016L24.9897 16.1133C27.14 15.8586 28.643 18.1724 27.5368 20.0269L24.5434 25.0456C24.5258 25.0751 24.5237 25.1118 24.5384 25.1434L26.9824 30.4426C27.8851 32.4 26.1448 34.5482 24.0323 34.0735L18.3264 32.7913C18.2932 32.7838 18.2586 32.7931 18.2336 32.8161L13.9333 36.7795C12.3411 38.2469 9.75984 37.2566 9.56297 35.1101L9.02996 29.2989C9.02678 29.2642 9.00666 29.2335 8.97663 29.2167L3.8749 26.3671C1.98972 25.3141 2.13444 22.5588 4.12401 21.7042L9.50044 19.3949C9.53155 19.3816 9.55452 19.3536 9.56133 19.3196L10.7086 13.5951Z" fill="#00AD45"/>
<path d="M30.8572 2.15441C30.1779 0.482874 27.8709 0.312786 26.9538 1.86665L24.474 6.06832C24.4593 6.09324 24.4335 6.10898 24.4052 6.11097L19.5276 6.45447C17.7226 6.58158 16.8506 8.71597 18.0485 10.0654L20.8708 13.2445L24.5971 12.8031C29.2124 12.2564 32.5435 16.9308 30.7639 21.0244L31.835 21.6906C33.3714 22.6463 35.3355 21.4298 35.1615 19.6369L34.6905 14.7832C34.6877 14.7542 34.6994 14.7258 34.7214 14.7074L38.4639 11.5704C39.8468 10.4113 39.2971 8.17209 37.5303 7.78166L32.7557 6.72658C32.7281 6.72048 32.7049 6.70112 32.694 6.67431L30.8572 2.15441Z" fill="#F13225"/>
</svg>
