<svg width="40" height="40" viewBox="0 0 40 40" fill="none" xmlns="http://www.w3.org/2000/svg">
<path fill-rule="evenodd" clip-rule="evenodd" d="M8.33529 3.3335C7.41482 3.3335 6.66863 4.07969 6.66863 5.00016C6.66863 5.92064 7.41482 6.66683 8.33529 6.66683H31.6686C32.5891 6.66683 33.3353 5.92064 33.3353 5.00016C33.3353 4.07969 32.5891 3.3335 31.6686 3.3335H8.33529Z" fill="#00AD45"/>
<path d="M21.3075 25.0189C22.9712 25.0646 23.8031 25.0874 24.3669 25.6542C24.9307 26.2209 24.9493 27.0535 24.9863 28.7185C24.9969 29.1949 25.0036 29.6816 25.0036 30.1523C25.0036 30.7161 24.994 31.3247 24.9796 31.922C24.9389 33.6067 24.9185 34.4491 24.3547 35.0146C23.7908 35.5801 22.9547 35.6027 21.2824 35.648C20.8637 35.6594 20.4551 35.6664 20.0869 35.6664C19.7187 35.6664 19.3101 35.6594 18.8915 35.648C17.2192 35.6027 16.383 35.5801 15.8192 35.0146C15.2553 34.4491 15.235 33.6067 15.1943 31.922C15.1798 31.3247 15.1703 30.7161 15.1703 30.1523C15.1703 29.6816 15.1769 29.1949 15.1875 28.7185C15.2246 27.0535 15.2431 26.2209 15.8069 25.6542C16.3708 25.0874 17.2026 25.0646 18.8663 25.0189C19.2937 25.0071 19.7113 24.9998 20.0869 24.9998C20.4625 24.9998 20.8801 25.0071 21.3075 25.0189Z" fill="#00AD45"/>
<path d="M8.33529 24.9998C8.33529 24.0793 7.5891 23.3331 6.66863 23.3331C5.74815 23.3331 5.00196 24.0793 5.00196 24.9998L5.00196 25.1191C5.00188 27.1357 5.00181 28.8283 5.20629 30.2128C5.426 31.7004 5.89868 32.9809 6.9322 34.1071C7.01992 34.2027 7.12888 34.3149 7.22188 34.4054C8.33132 35.4846 9.64215 35.9882 11.1688 36.2486C12.6034 36.4933 14.3832 36.545 16.5252 36.6073L16.6425 36.6107C17.8125 36.6448 18.9631 36.6664 20.002 36.6664C21.0408 36.6664 22.1914 36.6448 23.3614 36.6107L23.4787 36.6073C25.6207 36.545 27.4005 36.4933 28.8351 36.2486C30.3618 35.9882 31.6726 35.4846 32.782 34.4054C32.875 34.3149 32.984 34.2027 33.0717 34.1071C34.1052 32.9809 34.5779 31.7004 34.7976 30.2128C35.0021 28.8283 35.002 27.1357 35.002 25.119L35.002 24.9998C35.002 24.0793 34.2558 23.3331 33.3353 23.3331C32.4148 23.3331 31.6686 24.0793 31.6686 24.9998C31.6686 27.1672 31.6645 28.6127 31.5001 29.7258C31.3469 30.7629 31.0738 31.3543 30.6158 31.8534C30.5706 31.9026 30.5056 31.9695 30.4578 32.0161C29.9859 32.475 29.3852 32.7733 28.2746 32.9627C27.098 33.1634 27.2191 33.2122 24.9297 33.2788C24.8724 34.109 24.7412 34.6269 24.3547 35.0146C23.7908 35.5801 22.9547 35.6027 21.2824 35.648C20.8637 35.6594 20.4551 35.6664 20.0869 35.6664C19.7187 35.6664 19.3101 35.6594 18.8915 35.648C17.2192 35.6027 16.383 35.5801 15.8192 35.0146C15.4326 34.6269 15.3015 34.109 15.2441 33.2788C12.9547 33.2122 12.9059 33.1634 11.7293 32.9627C10.6187 32.7733 10.018 32.475 9.54616 32.0161C9.49832 31.9695 9.43328 31.9026 9.38815 31.8534C8.93012 31.3543 8.65702 30.7629 8.50385 29.7258C8.33946 28.6127 8.33529 27.1672 8.33529 24.9998Z" fill="#00AD45"/>
<path fill-rule="evenodd" clip-rule="evenodd" d="M6.7862 8.6768C6.34803 8.97397 6.0998 9.47844 5.60334 10.4874C4.33043 13.0742 3.51555 14.7303 3.42453 15.9596C3.36456 16.241 3.33301 16.5329 3.33301 16.8322C3.33301 19.1334 5.19849 20.9989 7.49967 20.9989C9.80086 20.9989 11.6663 19.1334 11.6663 16.8322C11.6663 16.7765 11.6652 16.721 11.6631 16.6658H11.6712C11.6691 16.721 11.6663 16.7765 11.6663 16.8322C11.6663 19.1334 13.5334 20.9989 15.8346 20.9989C18.0965 20.9989 19.9375 19.1966 19.9997 16.9497C20.0619 19.1966 21.9028 20.9989 24.1647 20.9989C26.4659 20.9989 28.3314 19.1334 28.3314 16.8322C28.3314 16.7765 28.3303 16.721 28.3281 16.6658H28.3363C28.3341 16.721 28.3314 16.7765 28.3314 16.8322C28.3314 19.1334 30.1985 20.9989 32.4997 20.9989C34.8009 20.9989 36.6663 19.1334 36.6663 16.8322C36.6663 16.5204 36.6321 16.2166 36.5671 15.9243C36.4634 14.6987 35.6519 13.0496 34.3911 10.4874C33.8947 9.47844 33.6465 8.97397 33.2083 8.6768C33.165 8.64747 33.1206 8.61984 33.0752 8.59398C32.6151 8.33203 32.0529 8.33203 30.9284 8.33203H9.06605C7.94159 8.33203 7.37935 8.33203 6.91925 8.59398C6.87384 8.61984 6.82945 8.64747 6.7862 8.6768ZM20.0013 16.6658L19.9997 16.7146L19.998 16.6658H20.0013Z" fill="#F13225"/>
</svg>
